# xmcd
#
# Track frame offsets:
#	150
#	26644
#	53839
#	72778
#	87194
#	112045
#	131137
#	144737
#	173292
#	196170
#	209807
#	222513
#	234858
#	248964
#	275009
#	286554
#	300261
#	329992
#
# Disc length: 4708 seconds
#
# Revision: 0
# Processed by: cddbd v1.5.2PL0 Copyright (c) Steve Scherf et al.
# Submitted via: audiograbber 1.83.01
#
DISCID=11126212
DTITLE=Various Artist - Blues CD2
DYEAR=2009
DGENRE=Blues
TTITLE0=Santana - Blues Latino
TTITLE1=Donavon Frankenreiter - Fool
TTITLE2=B.B.King - The Thrill Is Gone
TTITLE3=Clarence Gatemouth Brown - Rock My Blues Away
TTITLE4=Robben Ford - Nothing To Nobody
TTITLE5=Etta James and The Kinfolks - Baby What You Want Me To Do
TTITLE6=Buddy Guy - My Time After Awhile
TTITLE7=Luther Allison - Luther's Blues
TTITLE8=Jimmy Smith - Strut
TTITLE9=Bo Diddley - I'm A Man
TTITLE10=Lowell Fulson - Rollin' Blues
TTITLE11=Elmore James - The Sun Is Shining
TTITLE12=John Mayall and The Bluesbreakers - Ramblin' On My Mind
TTITLE13=The Allmann Brothers Band - Jelly Jelly
TTITLE14=Sonny Boy Williamson - Don't Start Me To Talkin' 
TTITLE15=Howlin' Wolf - Rockin' Daddy
TTITLE16=Savoy Brown - I Can't Get Next To You
TTITLE17=Joe Louis Walker - Blues Of The Month Club
EXTD=Müller Edition
EXTT0=
EXTT1=
EXTT2=
EXTT3=
EXTT4=
EXTT5=
EXTT6=
EXTT7=
EXTT8=
EXTT9=
EXTT10=
EXTT11=
EXTT12=
EXTT13=
EXTT14=
EXTT15=
EXTT16=
EXTT17=
PLAYORDER=
